<svg xmlns="http://www.w3.org/2000/svg" xmlns:xlink="http://www.w3.org/1999/xlink" width="12.5" height="17.5" viewBox="0 0 12.5 17.5">
  <defs>
    <clipPath id="clip-path">
      <path id="Path_26" data-name="Path 26" d="M10-17.5a3.125,3.125,0,0,1,3.125,3.125A3.125,3.125,0,0,1,10-11.25a3.125,3.125,0,0,1-3.125-3.125A3.129,3.129,0,0,1,10-17.5Zm0-1.25a4.375,4.375,0,0,0-4.375,4.375A4.375,4.375,0,0,0,10-10a4.375,4.375,0,0,0,4.375-4.375A4.375,4.375,0,0,0,10-18.75Zm6.25,17.5H15V-4.375A3.129,3.129,0,0,0,11.875-7.5H8.125A3.129,3.129,0,0,0,5-4.375V-1.25H3.75V-4.375A4.38,4.38,0,0,1,8.125-8.75h3.75A4.38,4.38,0,0,1,16.25-4.375Z" fill="none"/>
    </clipPath>
    <clipPath id="clip-path-2">
      <path id="Path_25" data-name="Path 25" d="M0,0H20V-20H0Z" fill="none"/>
    </clipPath>
    <clipPath id="clip-path-3">
      <rect id="Rectangle_6" data-name="Rectangle 6" width="24" height="28" transform="translate(-2 -24)" fill="none"/>
    </clipPath>
    <clipPath id="clip-path-4">
      <path id="Path_24" data-name="Path 24" d="M3-1H17V-19H3Z" fill="none"/>
    </clipPath>
  </defs>
  <g id="Group_26" data-name="Group 26" transform="translate(-3.75 18.75)">
    <g id="Group_25" data-name="Group 25" clip-path="url(#clip-path)">
      <g id="Group_24" data-name="Group 24" clip-path="url(#clip-path-2)">
        <g id="Group_23" data-name="Group 23" clip-path="url(#clip-path-3)">
          <g id="Group_22" data-name="Group 22" clip-path="url(#clip-path-4)">
            <path id="Path_22" data-name="Path 22" d="M-1.25-23.75h22.5V3.75H-1.25Z"/>
            <path id="Path_23" data-name="Path 23" d="M0-20H20V0H0Z" fill="#f3f3f3"/>
          </g>
        </g>
      </g>
    </g>
  </g>
</svg>
