<svg xmlns="http://www.w3.org/2000/svg" xmlns:xlink="http://www.w3.org/1999/xlink" width="15.75" height="15.75" viewBox="0 0 15.75 15.75">
  <defs>
    <clipPath id="clip-path">
      <rect width="15.75" height="15.75" fill="none"/>
    </clipPath>
    <clipPath id="clip-path-2">
      <path id="Path_71" data-name="Path 71" d="M11.813-16.875v1.125h3.144l-4.832,4.832.793.793,4.832-4.832v3.144h1.125v-5.062ZM7.875-7.082l-.793-.793L2.25-3.043V-6.187H1.125v5.063H6.188V-2.25H3.043L7.875-7.082Z" fill="none"/>
    </clipPath>
    <clipPath id="clip-path-3">
      <path id="Path_70" data-name="Path 70" d="M0,0H18V-18H0Z" fill="none"/>
    </clipPath>
    <clipPath id="clip-path-4">
      <rect id="Rectangle_19" data-name="Rectangle 19" width="40" height="40" transform="translate(-4 -22)" fill="none"/>
    </clipPath>
    <clipPath id="clip-path-5">
      <path id="Path_66" data-name="Path 66" d="M1-1H17V-17H1Z" fill="none"/>
    </clipPath>
    <clipPath id="clip-path-6">
      <path id="Path_69" data-name="Path 69" d="M0-18H36V18H0Z" fill="none" clip-rule="evenodd"/>
    </clipPath>
  </defs>
  <g id="Component_20_2" data-name="Component 20 – 2" clip-path="url(#clip-path)">
    <g id="Group_69" data-name="Group 69" transform="translate(-1.125 16.875)" clip-path="url(#clip-path-2)">
      <g id="Group_68" data-name="Group 68" clip-path="url(#clip-path-3)">
        <g id="Group_67" data-name="Group 67" clip-path="url(#clip-path-4)">
          <g id="Group_64" data-name="Group 64" clip-path="url(#clip-path-5)">
            <path id="Path_65" data-name="Path 65" d="M-3.875-21.875h25.75V3.875H-3.875Z"/>
          </g>
          <g id="Group_66" data-name="Group 66" clip-path="url(#clip-path-6)">
            <g id="Group_65" data-name="Group 65" clip-path="url(#clip-path-5)">
              <path id="Path_67" data-name="Path 67" d="M-5-23H41V23H-5Z" fill="#bdbebd"/>
            </g>
          </g>
        </g>
      </g>
    </g>
  </g>
</svg>
