<svg xmlns="http://www.w3.org/2000/svg" xmlns:xlink="http://www.w3.org/1999/xlink" width="17.5" height="17.5" viewBox="0 0 17.5 17.5">
  <defs>
    <clipPath id="clip-path">
      <path id="Path_31" data-name="Path 31" d="M10-18.75A8.776,8.776,0,0,0,1.25-10,8.776,8.776,0,0,0,10-1.25,8.776,8.776,0,0,0,18.75-10,8.776,8.776,0,0,0,10-18.75ZM10-2.5A7.522,7.522,0,0,1,2.5-10,7.522,7.522,0,0,1,10-17.5,7.522,7.522,0,0,1,17.5-10,7.522,7.522,0,0,1,10-2.5ZM10-5a.937.937,0,0,0,.938-.937A.937.937,0,0,0,10-6.875a.938.938,0,0,0-.937.938A.938.938,0,0,0,10-5Zm.625-10H9.688a2.8,2.8,0,0,0-2.812,2.813v.313h1.25v-.312A1.547,1.547,0,0,1,9.688-13.75h.938a1.547,1.547,0,0,1,1.563,1.563,1.547,1.547,0,0,1-1.562,1.563H9.375v2.5h1.25v-1.25a2.8,2.8,0,0,0,2.813-2.812A2.8,2.8,0,0,0,10.625-15Z" fill="none"/>
    </clipPath>
    <clipPath id="clip-path-2">
      <path id="Path_30" data-name="Path 30" d="M0,0H20V-20H0Z" fill="none"/>
    </clipPath>
    <clipPath id="clip-path-3">
      <rect id="Rectangle_7" data-name="Rectangle 7" width="28" height="28" transform="translate(-4 -24)" fill="none"/>
    </clipPath>
    <clipPath id="clip-path-4">
      <path id="Path_29" data-name="Path 29" d="M1-1H19V-19H1Z" fill="none"/>
    </clipPath>
  </defs>
  <g id="Group_31" data-name="Group 31" transform="translate(-1.25 18.75)">
    <g id="Group_30" data-name="Group 30" clip-path="url(#clip-path)">
      <g id="Group_29" data-name="Group 29" clip-path="url(#clip-path-2)">
        <g id="Group_28" data-name="Group 28" clip-path="url(#clip-path-3)">
          <g id="Group_27" data-name="Group 27" clip-path="url(#clip-path-4)">
            <path id="Path_27" data-name="Path 27" d="M-3.75-23.75h27.5V3.75H-3.75Z"/>
            <path id="Path_28" data-name="Path 28" d="M0-20H20V0H0Z" fill="#f3f3f3"/>
          </g>
        </g>
      </g>
    </g>
  </g>
</svg>
