<svg xmlns="http://www.w3.org/2000/svg" width="16" height="21.333" viewBox="0 0 16 21.333">
  <g id="Group_15935" data-name="Group 15935" transform="translate(-64)">
    <g id="Group_15934" data-name="Group 15934" transform="translate(64)">
      <path id="Path_16143" data-name="Path 16143" d="M75.7,4.7A40.893,40.893,0,0,1,72.575.328a.666.666,0,0,0-1.148,0A40.876,40.876,0,0,1,68.3,4.7C66.088,7.519,64,10.181,64,13.333a8,8,0,0,0,16,0C80,10.183,77.913,7.52,75.7,4.7ZM72,20a6.674,6.674,0,0,1-6.667-6.667c0-2.692,1.949-5.177,4.015-7.811.9-1.149,1.827-2.329,2.652-3.593.825,1.264,1.751,2.445,2.652,3.595,2.065,2.632,4.015,5.119,4.015,7.809A6.674,6.674,0,0,1,72,20Z" transform="translate(-64)"/>
    </g>
  </g>
</svg>
