<svg xmlns="http://www.w3.org/2000/svg" xmlns:xlink="http://www.w3.org/1999/xlink" width="12.516" height="17.522" viewBox="0 0 12.516 17.522">
  <defs>
    <clipPath id="clip-path">
      <rect width="12.516" height="17.522" fill="none"/>
    </clipPath>
    <clipPath id="clip-path-2">
      <path id="Path_85" data-name="Path 85" d="M16.083-14.18,11.7-18.561a.569.569,0,0,0-.438-.188H5.006A1.252,1.252,0,0,0,3.755-17.5V-2.478A1.252,1.252,0,0,0,5.006-1.226H15.019a1.252,1.252,0,0,0,1.252-1.252V-13.742a.569.569,0,0,0-.188-.438Zm-4.819-3.066,3.5,3.5h-3.5ZM15.019-2.478H5.006V-17.5h5.006v3.755a1.252,1.252,0,0,0,1.252,1.252h3.755ZM6.884-6.233h6.258v1.252H6.884Zm0-3.755h6.258v1.252H6.884Z" fill="none"/>
    </clipPath>
    <clipPath id="clip-path-3">
      <path id="Path_84" data-name="Path 84" d="M0,0H20V-20H0Z" fill="none"/>
    </clipPath>
    <clipPath id="clip-path-4">
      <rect id="Rectangle_21" data-name="Rectangle 21" width="24" height="28" transform="translate(-2 -24)" fill="none"/>
    </clipPath>
    <clipPath id="clip-path-5">
      <path id="Path_80" data-name="Path 80" d="M3-1H17V-19H3Z" fill="none"/>
    </clipPath>
    <clipPath id="clip-path-6">
      <path id="Path_83" data-name="Path 83" d="M0-20H20V0H0Z" fill="none" clip-rule="evenodd"/>
    </clipPath>
  </defs>
  <g id="Component_14_2" data-name="Component 14 – 2" clip-path="url(#clip-path)">
    <g id="Group_83" data-name="Group 83" transform="translate(-3.755 18.749)" clip-path="url(#clip-path-2)">
      <g id="Group_82" data-name="Group 82" clip-path="url(#clip-path-3)">
        <g id="Group_81" data-name="Group 81" clip-path="url(#clip-path-4)">
          <g id="Group_78" data-name="Group 78" clip-path="url(#clip-path-5)">
            <path id="Path_79" data-name="Path 79" d="M-1.245-23.749H21.271V3.774H-1.245Z"/>
          </g>
          <g id="Group_80" data-name="Group 80" clip-path="url(#clip-path-6)">
            <g id="Group_79" data-name="Group 79" clip-path="url(#clip-path-5)">
              <path id="Path_81" data-name="Path 81" d="M-5-25H25V5H-5Z" fill="#bdbebd"/>
            </g>
          </g>
        </g>
      </g>
    </g>
  </g>
</svg>
