<svg xmlns="http://www.w3.org/2000/svg" xmlns:xlink="http://www.w3.org/1999/xlink" width="17.5" height="18.125" viewBox="0 0 17.5 18.125">
  <defs>
    <clipPath id="clip-path">
      <path id="Path_21" data-name="Path 21" d="M4.819-7.306A.625.625,0,0,0,5-7.75v-3.125a5,5,0,0,1,2.643-4.406,5,5,0,0,1,5.132.25l.694-1.038a6.2,6.2,0,0,0-2.844-1.012v-1.294H9.375v1.281A6.25,6.25,0,0,0,3.75-10.875v2.869L2.056-6.319l.881.881Zm11.431-.7v-2.869a6.25,6.25,0,0,0-.681-2.812l3.181-3.181-.881-.881L1.25-1.131l.881.881L5.256-3.375H6.875A3.125,3.125,0,0,0,10-.25a3.125,3.125,0,0,0,3.125-3.125H17.5A.625.625,0,0,0,18.125-4V-5.875a.625.625,0,0,0-.181-.444ZM10-1.5A1.875,1.875,0,0,1,8.125-3.375h3.75A1.875,1.875,0,0,1,10-1.5Zm6.875-3.125H6.506l8.125-8.125a5,5,0,0,1,.375,1.875V-7.75a.625.625,0,0,0,.181.444l1.688,1.688Z" fill="none"/>
    </clipPath>
    <clipPath id="clip-path-2">
      <path id="Path_20" data-name="Path 20" d="M0,1H20V-19H0Z" fill="none"/>
    </clipPath>
    <clipPath id="clip-path-3">
      <rect id="Rectangle_5" data-name="Rectangle 5" width="44" height="45" transform="translate(-4 -24)" fill="none"/>
    </clipPath>
    <clipPath id="clip-path-4">
      <path id="Path_19" data-name="Path 19" d="M1,0H19V-19H1Z" fill="none"/>
    </clipPath>
  </defs>
  <g id="Group_21" data-name="Group 21" transform="translate(-1.25 18.375)">
    <g id="Group_20" data-name="Group 20" clip-path="url(#clip-path)">
      <g id="Group_19" data-name="Group 19" clip-path="url(#clip-path-2)">
        <g id="Group_18" data-name="Group 18" clip-path="url(#clip-path-3)">
          <g id="Group_17" data-name="Group 17" clip-path="url(#clip-path-4)">
            <path id="Path_17" data-name="Path 17" d="M-3.75-23.375h27.5V4.75H-3.75Z"/>
            <path id="Path_18" data-name="Path 18" d="M0-19H40V21H0Z" fill="#f3f3f3"/>
          </g>
        </g>
      </g>
    </g>
  </g>
</svg>
