<svg xmlns="http://www.w3.org/2000/svg" xmlns:xlink="http://www.w3.org/1999/xlink" width="16.988" height="17.45" viewBox="0 0 16.988 17.45">
  <defs>
    <clipPath id="clip-path">
      <rect width="16.988" height="17.45" fill="none"/>
    </clipPath>
    <clipPath id="clip-path-2">
      <path id="Path_106" data-name="Path 106" d="M16.875-9.525v-.956l1.2-1.056a1.25,1.25,0,0,0,.237-1.587l-1.475-2.5a1.25,1.25,0,0,0-1.481-.556l-1.519.512a6.875,6.875,0,0,0-.819-.475l-.312-1.575a1.25,1.25,0,0,0-1.25-1.006H8.525a1.25,1.25,0,0,0-1.25,1.006l-.312,1.575a6.875,6.875,0,0,0-.831.469l-1.487-.537a1.25,1.25,0,0,0-1.481.587l-1.475,2.5a1.25,1.25,0,0,0,.256,1.563l1.181,1.087v.956L1.944-8.469a1.25,1.25,0,0,0-.256,1.594l1.475,2.5a1.25,1.25,0,0,0,1.481.556l1.519-.513a6.875,6.875,0,0,0,.819.475l.313,1.575a1.25,1.25,0,0,0,1.25,1.006h2.95a1.25,1.25,0,0,0,1.25-1.006l.313-1.575a6.875,6.875,0,0,0,.831-.469l1.512.512a1.25,1.25,0,0,0,1.438-.562l1.475-2.5a1.25,1.25,0,0,0-.256-1.562ZM15.756-5l-2.144-.725a5.625,5.625,0,0,1-1.694.975L11.475-2.5H8.525L8.081-4.719A5.688,5.688,0,0,1,6.4-5.7L4.244-5,2.769-7.5,4.475-8.994a5.581,5.581,0,0,1,0-1.956L2.769-12.5,4.244-15l2.144.725a5.625,5.625,0,0,1,1.694-.975l.444-2.25h2.95l.444,2.219A5.688,5.688,0,0,1,13.6-14.3l2.156-.7,1.475,2.5L15.525-11a5.575,5.575,0,0,1,0,1.956L17.231-7.5ZM10-6.25A3.75,3.75,0,0,1,6.25-10,3.75,3.75,0,0,1,10-13.75,3.75,3.75,0,0,1,13.75-10a3.713,3.713,0,0,1-1.087,2.663A3.713,3.713,0,0,1,10-6.25Zm0-6.25a2.444,2.444,0,0,0-1.785.715A2.444,2.444,0,0,0,7.5-10a2.444,2.444,0,0,0,.715,1.785A2.444,2.444,0,0,0,10-7.5a2.444,2.444,0,0,0,1.785-.715A2.444,2.444,0,0,0,12.5-10a2.444,2.444,0,0,0-.715-1.785A2.444,2.444,0,0,0,10-12.5Z" fill="none"/>
    </clipPath>
    <clipPath id="clip-path-3">
      <path id="Path_105" data-name="Path 105" d="M0,0H20V-20H0Z" fill="none"/>
    </clipPath>
    <clipPath id="clip-path-4">
      <rect id="Rectangle_24" data-name="Rectangle 24" width="44" height="44" transform="translate(-4 -24)" fill="none"/>
    </clipPath>
    <clipPath id="clip-path-5">
      <path id="Path_101" data-name="Path 101" d="M1-1H19V-19H1Z" fill="none"/>
    </clipPath>
    <clipPath id="clip-path-6">
      <path id="Path_104" data-name="Path 104" d="M0-20H40V20H0Z" fill="none" clip-rule="evenodd"/>
    </clipPath>
  </defs>
  <g id="Component_18_2" data-name="Component 18 – 2" transform="translate(0 0)" clip-path="url(#clip-path)">
    <g id="Group_104" data-name="Group 104" transform="translate(-1.508 18.725)" clip-path="url(#clip-path-2)">
      <g id="Group_103" data-name="Group 103" clip-path="url(#clip-path-3)">
        <g id="Group_102" data-name="Group 102" clip-path="url(#clip-path-4)">
          <g id="Group_99" data-name="Group 99" clip-path="url(#clip-path-5)">
            <path id="Path_100" data-name="Path 100" d="M-3.492-23.725H23.5V3.725H-3.492Z"/>
          </g>
          <g id="Group_101" data-name="Group 101" clip-path="url(#clip-path-6)">
            <g id="Group_100" data-name="Group 100" clip-path="url(#clip-path-5)">
              <path id="Path_102" data-name="Path 102" d="M-5-25H45V25H-5Z" fill="#bdbebd"/>
            </g>
          </g>
        </g>
      </g>
    </g>
  </g>
</svg>
