<svg xmlns="http://www.w3.org/2000/svg" width="10.001" height="20.004" viewBox="0 0 10.001 20.004">
  <g id="icon-color" transform="translate(87.104 -38.194)">
    <path id="Path_16142" data-name="Path 16142" d="M-79.246,49.095V41.051A2.857,2.857,0,0,0-82.1,38.194a2.857,2.857,0,0,0-2.857,2.857v8.043a5,5,0,0,0-1.914,5.6A5,5,0,0,0-82.1,58.2a5,5,0,0,0,4.77-3.5,5,5,0,0,0-1.913-5.6ZM-82.1,39.623a1.429,1.429,0,0,1,1.429,1.429v5h-2.857v-5A1.428,1.428,0,0,1-82.1,39.623Zm0,17.144a3.572,3.572,0,0,1-3.45-2.647A3.572,3.572,0,0,1-83.889,50.1l.357-.207V47.48h2.857V49.9l.357.207a3.572,3.572,0,0,1,1.652,4.011A3.573,3.573,0,0,1-82.1,56.767Z" fill-rule="evenodd"/>
  </g>
</svg>
