<svg id="Group_1096" data-name="Group 1096" xmlns="http://www.w3.org/2000/svg" width="17.879" height="17.879" viewBox="0 0 17.879 17.879">
  <g id="icon">
    <path id="Path_1271" data-name="Path 1271" d="M17.728,10.956A9.326,9.326,0,0,0,9.381,5a9.326,9.326,0,0,0-8.347,5.956.562.562,0,0,0,0,.38,9.326,9.326,0,0,0,8.347,5.956,9.326,9.326,0,0,0,8.347-5.956A.562.562,0,0,0,17.728,10.956ZM9.381,16.174a8.3,8.3,0,0,1-7.224-5.028A8.3,8.3,0,0,1,9.381,6.117a8.3,8.3,0,0,1,7.224,5.028A8.3,8.3,0,0,1,9.381,16.174Z" transform="translate(-0.442 -2.206)" fill="#3b6df0"/>
    <path id="Path_1272" data-name="Path 1272" d="M13.352,10A3.352,3.352,0,1,0,16.7,13.352,3.352,3.352,0,0,0,13.352,10Zm0,5.587a2.235,2.235,0,1,1,2.235-2.235A2.235,2.235,0,0,1,13.352,15.587Z" transform="translate(-4.413 -4.413)" fill="#3b6df0"/>
    <rect id="_Transparent_Rectangle_" data-name=" Transparent Rectangle " width="17.879" height="17.879" fill="none"/>
  </g>
</svg>
