<?xml version="1.0" encoding="UTF-8"?>
<svg width="35px" height="20px" viewBox="0 0 153 126" version="1.1" xmlns="http://www.w3.org/2000/svg" xmlns:xlink="http://www.w3.org/1999/xlink">
    <!-- Generator: Sketch 58 (84663) - https://sketch.com -->
    <title>icon/image/watson/32</title>
    <desc>Created with Sketch.</desc>
    <defs>
        <path d="M103.753125,40.078125 L103.753125,40.078125 C95.625,35.859375 86.0625,33.328125 76.5,33.328125 L76.5,33.328125 C74.5875,33.328125 72.675,34.59375 72.675,36.703125 C72.675,38.390625 74.109375,40.078125 76.5,40.078125 C79.36875,40.078125 82.715625,40.5 85.584375,40.921875 C74.5875,45.5625 62.634375,56.109375 53.55,70.453125 C49.725,76.359375 46.378125,82.6875 43.9875,89.015625 C39.20625,84.375 35.38125,78.890625 33.46875,72.5625 C32.034375,68.765625 32.5125,64.96875 34.903125,61.171875 L34.903125,61.171875 L34.903125,61.171875 C38.728125,55.265625 46.378125,52.3125 56.896875,51.890625 C58.809375,51.890625 60.24375,50.203125 60.24375,48.515625 C60.24375,46.828125 58.809375,45.5625 56.41875,45.5625 L56.41875,45.5625 C43.509375,45.984375 33.46875,50.203125 28.209375,57.796875 L28.209375,57.796875 L28.209375,57.796875 L28.209375,57.796875 L28.209375,57.796875 C24.8625,62.4375 24.384375,68.34375 26.296875,73.828125 C29.165625,82.265625 34.425,89.859375 41.596875,95.765625 C40.640625,99.984375 40.1625,104.625 40.640625,109.265625 C36.3375,105.046875 32.990625,99.984375 31.078125,94.5 C30.6,92.8125 28.209375,91.96875 26.296875,92.390625 C24.384375,92.8125 23.428125,94.921875 23.90625,96.609375 L23.90625,96.609375 C28.209375,108 36.815625,117.703125 48.76875,123.609375 L48.76875,123.609375 C56.896875,127.828125 66.459375,129.9375 76.021875,129.9375 C106.14375,129.9375 131.00625,108.421875 131.00625,81.421875 C131.484375,64.546875 120.4875,48.515625 103.753125,40.078125 Z M88.93125,122.765625 C76.5,125.71875 63.590625,124.03125 52.59375,118.546875 L52.59375,118.546875 C48.290625,116.4375 46.85625,110.109375 48.290625,101.671875 C52.115625,104.203125 55.940625,106.734375 60.24375,108.84375 C70.284375,114.328125 81.759375,116.859375 93.234375,117.28125 C97.059375,117.28125 100.884375,116.859375 104.709375,116.015625 C99.928125,118.96875 94.66875,121.078125 88.93125,122.765625 L88.93125,122.765625 Z M100.159266,45.8622384 L100.40625,45.984375 C122.878125,57.375 131.00625,82.6875 117.61875,102.9375 C108.05625,111.375 85.584375,114.328125 63.590625,103.359375 C58.809375,100.828125 54.028125,97.875 49.725,94.5 C52.115625,87.328125 55.4625,80.15625 59.765625,73.828125 C73.4925938,52.5276563 91.9056656,41.9776594 100.159266,45.8622384 Z M5.05450785,42.1019412 L5.259375,42.1875 L19.603125,49.359375 C21.0375,50.203125 21.99375,52.3125 21.0375,53.578125 C20.1154018,55.2053571 18.3041374,55.6557518 16.4611172,54.9293088 L16.25625,54.84375 L1.9125,47.671875 L1.71977185,47.5816153 C-0.0312685791,46.7117457 -0.445150862,45.0824353 0.478125,43.453125 C1.40022321,41.8258929 3.21148756,41.3754982 5.05450785,42.1019412 Z M147.897858,42.1019412 C149.343929,41.3754982 151.599777,41.8258929 152.521875,43.453125 C153.478125,44.71875 153,46.828125 151.0875,47.671875 L151.0875,47.671875 L136.74375,54.84375 L136.586517,54.9293088 C135.140446,55.6557518 132.884598,55.2053571 131.9625,53.578125 C131.00625,52.3125 131.484375,50.203125 133.396875,49.359375 L133.396875,49.359375 L147.740625,42.1875 Z M37.6640399,16.2771644 L37.771875,16.453125 L45.9,29.109375 L45.9938057,29.243225 C46.8215703,30.5189692 46.3121767,32.5134698 44.465625,33.328125 C43.0824777,34.1417411 40.8101642,33.7785196 39.7922101,32.2384606 L39.684375,32.0625 L31.55625,19.40625 C30.6,18.140625 31.078125,16.03125 32.990625,15.1875 C34.3737723,14.3738839 36.6460858,14.7371054 37.6640399,16.2771644 Z M120.009375,15.1875 C121.855927,16.0021552 122.36532,17.603374 121.537556,19.2317156 L121.44375,19.40625 L113.315625,32.0625 L113.209554,32.2384606 C112.222768,33.7785196 110.378571,34.1417411 108.534375,33.328125 C106.216193,32.5099432 106.145945,30.5016787 107.015742,29.2266975 L107.1,29.109375 L115.228125,16.453125 L115.334196,16.2771644 C116.320982,14.7371054 118.165179,14.3738839 120.009375,15.1875 Z M76.5,4.21875 C78.8135081,4.21875 80.2314646,5.79913502 80.3205383,7.43050019 L80.325,7.59375 L80.325,22.359375 C80.325,24.46875 78.4125,25.734375 76.5,25.734375 C74.6491935,25.734375 72.7983871,24.15399 72.6809061,22.5226248 L72.675,22.359375 L72.675,7.59375 C72.675,5.484375 74.5875,4.21875 76.5,4.21875 Z" id="path-1"></path>
    </defs>
    <g id="Page-1" stroke="none" stroke-width="1" fill="none" fill-rule="evenodd">
        <g id="Artboard" transform="translate(-732.000000, -302.000000)">
            <g id="icon/image/watson/32" transform="translate(732.000000, 298.000000)">
                <mask id="mask-2" fill="white">
                    <use xlink:href="#path-1"></use>
                </mask>
                <use id="icon-color" fill="#EDF4FF" fill-rule="evenodd" xlink:href="#path-1"></use>
            </g>
        </g>
    </g>
</svg>