<svg xmlns="http://www.w3.org/2000/svg" xmlns:xlink="http://www.w3.org/1999/xlink" width="182.354" height="40.493" viewBox="0 0 182.354 40.493">
  <defs>
    <clipPath id="clip-path">
      <rect id="Rectangle_779" data-name="Rectangle 779" width="43.724" height="40.493" transform="translate(0 0)" fill="#f4f7fb"/>
    </clipPath>
  </defs>
  <g id="Group_516" data-name="Group 516" transform="translate(-88.126 -924.845)">
    <g id="Group_396" data-name="Group 396" transform="translate(88.126 924.845)" clip-path="url(#clip-path)">
      <g id="Group_395" data-name="Group 395" transform="translate(-0.012 0)">
        <path id="Path_618" data-name="Path 618" d="M-52.119-17.311a.787.787,0,0,1-.427-.106l-4.167-2.39a.842.842,0,0,1-.321-1.168.852.852,0,0,1,1.175-.319l4.167,2.39a.842.842,0,0,1,.321,1.168A.886.886,0,0,1-52.119-17.311Z" transform="translate(57.152 33.455)" fill="#f4f7fb"/>
        <path id="Path_619" data-name="Path 619" d="M-30.7-38.606a.886.886,0,0,1-.748-.425l-2.4-4.142a.836.836,0,0,1,.321-1.168.846.846,0,0,1,1.175.319l2.4,4.142a.836.836,0,0,1-.321,1.168A1.125,1.125,0,0,1-30.7-38.606Z" transform="translate(42.836 47.687)" fill="#f4f7fb"/>
        <path id="Path_620" data-name="Path 620" d="M-1.38-46.419a.858.858,0,0,1-.855-.85v-4.779a.858.858,0,0,1,.855-.85.876.876,0,0,1,.855.85v4.779A.841.841,0,0,1-1.38-46.419Z" transform="translate(23.24 52.898)" fill="#f4f7fb"/>
        <path id="Path_621" data-name="Path 621" d="M24.019-38.606a.787.787,0,0,1-.427-.106.842.842,0,0,1-.321-1.168l2.4-4.142a.852.852,0,0,1,1.175-.319.842.842,0,0,1,.321,1.168l-2.4,4.142A.886.886,0,0,1,24.019-38.606Z" transform="translate(7.563 47.687)" fill="#f4f7fb"/>
        <path id="Path_622" data-name="Path 622" d="M42.594-17.311a.886.886,0,0,1-.748-.425.836.836,0,0,1,.321-1.168l4.167-2.39a.846.846,0,0,1,1.175.319.836.836,0,0,1-.321,1.168l-4.167,2.39A.787.787,0,0,1,42.594-17.311Z" transform="translate(-3.907 33.455)" fill="#f4f7fb"/>
        <path id="Path_623" data-name="Path 623" d="M-22.391,3.633a4.548,4.548,0,0,1-2.3-.584c-1.95-1.115-2.885-3.585-2.618-7.01a25.451,25.451,0,0,1,3.552-10.382h0A25.956,25.956,0,0,1-16.489-22.6c2.831-1.938,5.475-2.39,7.4-1.275,1.95,1.115,2.885,3.611,2.618,7.01A25.451,25.451,0,0,1-10.025-6.484C-13.631-.27-18.6,3.633-22.391,3.633Zm11-26.367A7.706,7.706,0,0,0-15.5-21.167a24.481,24.481,0,0,0-6.758,7.674h0A23.7,23.7,0,0,0-25.57-3.828c-.214,2.682.427,4.647,1.736,5.39a2.846,2.846,0,0,0,1.5.372c3.072,0,7.612-3.77,10.817-9.267A24.1,24.1,0,0,0-8.209-17c.214-2.682-.427-4.647-1.736-5.39A2.828,2.828,0,0,0-11.387-22.734Z" transform="translate(38.75 35.347)" fill="#f4f7fb"/>
        <path id="Path_624" data-name="Path 624" d="M-25.268,2.754A15.494,15.494,0,0,1-31.812,1.32a15.537,15.537,0,0,1-7.612-20.658,15.676,15.676,0,0,1,20.753-7.568A15.5,15.5,0,0,1-11.059-6.274,15.662,15.662,0,0,1-25.268,2.754Zm.053-29.367a13.915,13.915,0,0,0-12.634,8.019A13.791,13.791,0,0,0-31.064-.247,13.933,13.933,0,0,0-12.608-6.991a13.791,13.791,0,0,0-6.784-18.348A13.812,13.812,0,0,0-25.215-26.613Z" transform="translate(47.102 37.739)" fill="#f4f7fb"/>
        <path id="Path_625" data-name="Path 625" d="M-18.937,4.89a20.368,20.368,0,0,1-9.936-2.815h0C-36.352-2.2-40.011-9.847-37.019-14.972c2.965-5.125,11.458-5.788,18.937-1.514C-10.657-12.21-7-4.563-9.963.562-11.619,3.4-14.984,4.89-18.937,4.89ZM-28.018.562c6.651,3.824,14.076,3.425,16.56-.876S-12.34-11.2-18.99-15c-6.651-3.824-14.076-3.425-16.56.876S-34.669-3.236-28.018.562Z" transform="translate(45.365 32.151)" fill="#f4f7fb"/>
        <path id="Path_626" data-name="Path 626" d="M-29.65,5.559c-3.312,0-5.769-1.115-6.944-3.16-2.484-4.275,1.5-11.072,9.108-15.427a23.454,23.454,0,0,1,10.63-3.293c3.526-.08,6.116,1.036,7.345,3.16,2.484,4.3-1.5,11.072-9.108,15.427a23.454,23.454,0,0,1-10.63,3.293Zm13.195-20.154H-16.8a21.44,21.44,0,0,0-9.829,3.08C-33.149-7.77-37.048-1.8-35.1,1.55c.908,1.567,2.965,2.363,5.8,2.31A22.1,22.1,0,0,0-19.473.78c6.517-3.744,10.417-9.718,8.467-13.064C-11.888-13.771-13.811-14.594-16.455-14.594Z" transform="translate(44.913 30.313)" fill="#f4f7fb"/>
      </g>
    </g>
    <path id="Watson_IoT_1_" d="M3.795,16.763,0,0H3.609L5.192,8.056l.885,4.656h.07L7.194,8.056,9.057,0h3.981L14.9,8.056l1.024,4.656h.07l.885-4.656L18.509,0h3.469L18.09,16.763H13.923L11.8,7.683,10.989,4h-.07l-.838,3.679-2.119,9.08Zm29.126,0a2.385,2.385,0,0,1-2.4-2.212h-.14c-.4,1.63-1.769,2.491-3.7,2.491-2.514,0-3.911-1.49-3.911-3.679,0-2.654,2.072-3.935,5.4-3.935h2V8.638c0-1.234-.605-2-2.1-2a3.136,3.136,0,0,0-2.724,1.49L23.235,6.263c1-1.49,2.445-2.4,5.1-2.4,3.562,0,5.378,1.63,5.378,4.61v5.518H34.9v2.771Zm-2.747-3.818v-1.49H28.45c-1.374,0-2.1.512-2.1,1.42v.349c0,.908.605,1.35,1.653,1.35C29.172,14.574,30.173,14.086,30.173,12.945Zm11.362,3.818c-2.445,0-3.748-1.281-3.748-3.679V6.915H36.017V4.144H36.9c.955,0,1.257-.489,1.257-1.35V.745h3.19v3.4H43.84V6.915H41.349v7.078h2.3v2.771Zm3.748-1.979,2.1-2.119a4.409,4.409,0,0,0,3.329,1.606c1.4,0,1.863-.466,1.863-1.211,0-.629-.4-.931-1.281-1.048l-1.374-.163c-2.864-.349-4.261-1.606-4.261-3.888,0-2.421,1.886-4.1,4.889-4.1A6.353,6.353,0,0,1,55.69,5.844l-2.049,2.1a4.208,4.208,0,0,0-2.91-1.3c-1.211,0-1.676.442-1.676,1.048,0,.675.279,1.024,1.327,1.187l1.42.186c2.747.349,4.144,1.606,4.144,3.795,0,2.421-2.165,4.214-5.4,4.214A6.648,6.648,0,0,1,45.283,14.784Zm12.363-4.33c0-4.051,2.212-6.589,5.914-6.589s5.914,2.514,5.914,6.589-2.212,6.612-5.914,6.612S57.646,14.5,57.646,10.454Zm8.1,1.281V9.173c0-1.583-.815-2.491-2.212-2.491s-2.212.908-2.212,2.491v2.561c0,1.583.815,2.491,2.212,2.491S65.748,13.317,65.748,11.734Zm6.216,5.029V4.144h3.562V6.286h.14a3.44,3.44,0,0,1,3.516-2.421c2.561,0,3.935,1.816,3.935,5.006v7.893H79.554V9.15c0-1.606-.466-2.4-1.746-2.4-1.164,0-2.282.605-2.282,1.839v8.172Zm16.716,0v-2.91h2.165V2.91H88.681V0h7.962V2.91H94.478V13.853h2.165v2.91ZM98.6,10.454c0-4.051,2.212-6.589,5.914-6.589s5.914,2.514,5.914,6.589-2.212,6.612-5.914,6.612C100.811,17.042,98.6,14.5,98.6,10.454Zm8.125,1.281V9.173c0-1.583-.815-2.491-2.212-2.491S102.3,7.59,102.3,9.173v2.561c0,1.583.815,2.491,2.212,2.491C105.909,14.249,106.724,13.317,106.724,11.734Zm11.478-8.5V16.763h-3.655V3.236h-4.54V0h12.735V3.236Zm2.934,13.55V14.761h-.745v-.419h1.979v.419h-.745v2.026Zm1.56,0V14.342h.582l.582,1.118h.023l.559-1.118h.582v2.445h-.442V15.739l.023-.745h-.023l-.722,1.327-.7-1.327h-.023l.023.745v1.048Z" transform="translate(145.456 937.735)" fill="#fff"/>
  </g>
</svg>
