<svg xmlns="http://www.w3.org/2000/svg" xmlns:xlink="http://www.w3.org/1999/xlink" width="17.75" height="17.5" viewBox="0 0 18.75 17.5">
  <defs>
    <clipPath id="clip-path">
      <path id="Path_53" data-name="Path 53" d="M20-11.25H17.5v-2.5H16.25v2.5h-2.5V-10h2.5v2.5H17.5V-10H20v-1.25ZM7.5-17.5a3.125,3.125,0,0,1,3.125,3.125A3.125,3.125,0,0,1,7.5-11.25a3.125,3.125,0,0,1-3.125-3.125A3.129,3.129,0,0,1,7.5-17.5Zm0-1.25a4.375,4.375,0,0,0-4.375,4.375A4.375,4.375,0,0,0,7.5-10a4.375,4.375,0,0,0,4.375-4.375A4.375,4.375,0,0,0,7.5-18.75Zm6.25,17.5H12.5V-4.375A3.129,3.129,0,0,0,9.375-7.5H5.625A3.129,3.129,0,0,0,2.5-4.375V-1.25H1.25V-4.375A4.38,4.38,0,0,1,5.625-8.75h3.75A4.38,4.38,0,0,1,13.75-4.375Z" fill="none"/>
    </clipPath>
    <clipPath id="clip-path-2">
      <path id="Path_52" data-name="Path 52" d="M0,0H21V-20H0Z" fill="none"/>
    </clipPath>
    <clipPath id="clip-path-3">
      <rect id="Rectangle_11" data-name="Rectangle 11" width="44" height="44" transform="translate(-4 -24)" fill="none"/>
    </clipPath>
    <clipPath id="clip-path-4">
      <path id="Path_48" data-name="Path 48" d="M1-1H20V-19H1Z" fill="none"/>
    </clipPath>
    <clipPath id="clip-path-5">
      <path id="Path_51" data-name="Path 51" d="M0-20H40V20H0Z" fill="none" clip-rule="evenodd"/>
    </clipPath>
  </defs>
  <g id="Group_53" data-name="Group 53" transform="translate(-1.25 18.75)">
    <g id="Group_52" data-name="Group 52" clip-path="url(#clip-path)">
      <g id="Group_51" data-name="Group 51" clip-path="url(#clip-path-2)">
        <g id="Group_50" data-name="Group 50" clip-path="url(#clip-path-3)">
          <g id="Group_47" data-name="Group 47" clip-path="url(#clip-path-4)">
            <path id="Path_47" data-name="Path 47" d="M-3.75-23.75H25V3.75H-3.75Z"/>
          </g>
          <g id="Group_49" data-name="Group 49" clip-path="url(#clip-path-5)">
            <g id="Group_48" data-name="Group 48" clip-path="url(#clip-path-4)">
              <path id="Path_49" data-name="Path 49" d="M-5-25H45V25H-5Z" fill="#555655"/>
            </g>
          </g>
        </g>
      </g>
    </g>
  </g>
</svg>
