<svg xmlns="http://www.w3.org/2000/svg" xmlns:xlink="http://www.w3.org/1999/xlink" width="20" height="20" viewBox="0 0 20 20">
  <defs>
    <clipPath id="clip-path">
      <path id="Path_10" data-name="Path 10" d="M12.493,1.5,11.25.731l2.857-5.385h4.286a1.487,1.487,0,0,0,1.429-1.538v-9.231a1.487,1.487,0,0,0-1.429-1.538H4.107a1.487,1.487,0,0,0-1.429,1.538v9.231A1.487,1.487,0,0,0,4.107-4.654h6.429v1.538H4.107A2.973,2.973,0,0,1,1.25-6.192v-9.231A2.973,2.973,0,0,1,4.107-18.5H18.393a2.973,2.973,0,0,1,2.857,3.077v9.231a2.973,2.973,0,0,1-2.857,3.077H14.936ZM5.536-13.885H16.964v1.538H5.536Zm0,4.615h7.143v1.538H5.536Z" transform="translate(-1.25 18.5)" fill="none"/>
    </clipPath>
    <clipPath id="clip-path-2">
      <path id="Path_9" data-name="Path 9" d="M0,3.615H22.857V-21H0Z" transform="translate(0 21)" fill="none"/>
    </clipPath>
    <clipPath id="clip-path-3">
      <rect id="Rectangle_4" data-name="Rectangle 4" width="32" height="33.231" fill="none"/>
    </clipPath>
    <clipPath id="clip-path-4">
      <path id="Path_8" data-name="Path 8" d="M1,1.923H21.571V-19H1Z" transform="translate(-1 19)" fill="none"/>
    </clipPath>
  </defs>
  <g id="Group_10" data-name="Group 10" transform="translate(-1.25 18.5)">
    <g id="Group_9" data-name="Group 9" transform="translate(1.25 -18.5)" clip-path="url(#clip-path)">
      <g id="Group_8" data-name="Group 8" transform="translate(-1.429 -3.077)" clip-path="url(#clip-path-2)">
        <g id="Group_7" data-name="Group 7" transform="translate(-4.571 -3.692)" clip-path="url(#clip-path-3)">
          <g id="Group_6" data-name="Group 6" transform="translate(5.714 6.154)" clip-path="url(#clip-path-4)">
            <path id="Path_6" data-name="Path 6" d="M-3.75-23.5H27.679V8.808H-3.75Z" transform="translate(-1.679 17.962)"/>
            <path id="Path_7" data-name="Path 7" d="M0-21H22.857V3.615H0Z" transform="translate(-1.143 18.538)" fill="#f3f3f3"/>
          </g>
        </g>
      </g>
    </g>
  </g>
</svg>
