<svg xmlns="http://www.w3.org/2000/svg" xmlns:xlink="http://www.w3.org/1999/xlink" width="11.875" height="17.5" viewBox="0 0 11.875 17.5">
  <defs>
    <clipPath id="clip-path">
      <rect width="11.875" height="17.5" fill="none"/>
    </clipPath>
    <clipPath id="clip-path-2">
      <path id="Path_99" data-name="Path 99" d="M11.875-1.25a.624.624,0,0,1-.5-.245L3.254-12.12a.625.625,0,0,1-.064-.656.625.625,0,0,1,.56-.348H6.721L5.64-17.99a.625.625,0,0,1,.123-.527.625.625,0,0,1,.488-.234H12.5a.625.625,0,0,1,.609.484l1.875,8.125a.625.625,0,0,1-.12.53.626.626,0,0,1-.489.236H11.354L12.493-1.97a.625.625,0,0,1-.143.5A.625.625,0,0,1,11.875-1.25ZM5.015-11.875,10.885-4.2l-.878-5.707a.625.625,0,0,1,.143-.5.625.625,0,0,1,.474-.218H13.59L12-17.5H7.029L8.11-12.635a.625.625,0,0,1-.123.527.625.625,0,0,1-.488.234Z" fill="none"/>
    </clipPath>
    <clipPath id="clip-path-3">
      <path id="Path_98" data-name="Path 98" d="M0,0H20V-20H0Z" fill="none"/>
    </clipPath>
    <clipPath id="clip-path-4">
      <rect id="Rectangle_23" data-name="Rectangle 23" width="42" height="44" transform="translate(-2 -24)" fill="none"/>
    </clipPath>
    <clipPath id="clip-path-5">
      <path id="Path_94" data-name="Path 94" d="M3-1H15V-19H3Z" fill="none"/>
    </clipPath>
    <clipPath id="clip-path-6">
      <path id="Path_97" data-name="Path 97" d="M0-20H40V20H0Z" fill="none" clip-rule="evenodd"/>
    </clipPath>
  </defs>
  <g id="Component_17_2" data-name="Component 17 – 2" clip-path="url(#clip-path)">
    <g id="Group_97" data-name="Group 97" transform="translate(-3.125 18.75)" clip-path="url(#clip-path-2)">
      <g id="Group_96" data-name="Group 96" clip-path="url(#clip-path-3)">
        <g id="Group_95" data-name="Group 95" clip-path="url(#clip-path-4)">
          <g id="Group_92" data-name="Group 92" clip-path="url(#clip-path-5)">
            <path id="Path_93" data-name="Path 93" d="M-1.875-23.75H20V3.75H-1.875Z"/>
          </g>
          <g id="Group_94" data-name="Group 94" clip-path="url(#clip-path-6)">
            <g id="Group_93" data-name="Group 93" clip-path="url(#clip-path-5)">
              <path id="Path_95" data-name="Path 95" d="M-5-25H45V25H-5Z" fill="#bdbebd"/>
            </g>
          </g>
        </g>
      </g>
    </g>
  </g>
</svg>
