<svg id="icons" xmlns="http://www.w3.org/2000/svg" width="28" height="28.496" viewBox="0 0 28 28.496">
  <g id="Group_15928" data-name="Group 15928">
    <g id="icon-color">
      <path id="Path_16140" data-name="Path 16140" d="M21.5,20H21V18h.5a4.5,4.5,0,0,0,.356-8.981l-.815-.064-.1-.812a6.993,6.993,0,0,0-13.883,0l-.1.812-.815.064A4.5,4.5,0,0,0,6.5,18H7v2H6.5A6.5,6.5,0,0,1,5.2,7.136a8.995,8.995,0,0,1,17.6,0A6.5,6.5,0,0,1,21.5,20Zm-7.632,8.5,1.023-4.23L15.276,22h-6l4.855-8.5L13.191,18l-.468,2h6Z" fill-rule="evenodd"/>
    </g>
  </g>
</svg>
