<svg xmlns="http://www.w3.org/2000/svg" xmlns:xlink="http://www.w3.org/1999/xlink" width="14" height="17.5" viewBox="0 0 14 17.5">
  <defs>
    <clipPath id="clip-path">
      <path id="Path_46" data-name="Path 46" d="M3.667-9.375l.822.881,4.428-4.738V-1.25h1.167V-13.231l4.427,4.738.823-.881L9.5-15.625,3.667-9.375Zm0-5.625v-2.5H15.333V-15H16.5v-2.5h0a1.21,1.21,0,0,0-1.167-1.25H3.667A1.21,1.21,0,0,0,2.5-17.5h0V-15Z" transform="translate(-2.5 18.75)" fill="none"/>
    </clipPath>
    <clipPath id="clip-path-2">
      <path id="Path_45" data-name="Path 45" d="M0,0H18.667V-20H0Z" transform="translate(0 20)" fill="none"/>
    </clipPath>
    <clipPath id="clip-path-3">
      <rect id="Rectangle_10" data-name="Rectangle 10" width="40.133" height="44" fill="none"/>
    </clipPath>
    <clipPath id="clip-path-4">
      <path id="Path_41" data-name="Path 41" d="M2-1H16.933V-19H2Z" transform="translate(-2 19)" fill="none"/>
    </clipPath>
    <clipPath id="clip-path-5">
      <path id="Path_44" data-name="Path 44" d="M0-20H37.333V20H0Z" transform="translate(0 20)" fill="none" clip-rule="evenodd"/>
    </clipPath>
  </defs>
  <g id="Group_46" data-name="Group 46" transform="translate(-2.5 18.75)">
    <g id="Group_45" data-name="Group 45" transform="translate(2.5 -18.75)" clip-path="url(#clip-path)">
      <g id="Group_44" data-name="Group 44" transform="translate(-2.333 -1.25)" clip-path="url(#clip-path-2)">
        <g id="Group_43" data-name="Group 43" transform="translate(-2.8 -4)" clip-path="url(#clip-path-3)">
          <g id="Group_40" data-name="Group 40" transform="translate(4.667 5)" clip-path="url(#clip-path-4)">
            <path id="Path_40" data-name="Path 40" d="M-2.5-23.75H20.833V3.75H-2.5Z" transform="translate(-1.7 19)"/>
          </g>
          <g id="Group_42" data-name="Group 42" transform="translate(2.8 4)" clip-path="url(#clip-path-5)">
            <g id="Group_41" data-name="Group 41" transform="translate(1.867 1)" clip-path="url(#clip-path-4)">
              <path id="Path_42" data-name="Path 42" d="M-5-25H41.667V25H-5Z" transform="translate(-1.533 19)" fill="#555655"/>
            </g>
          </g>
        </g>
      </g>
    </g>
  </g>
</svg>
